<mxfile host="app.diagrams.net" agent="Mozilla/5.0 (Macintosh; Intel Mac OS X 10_15_7) AppleWebKit/537.36 (KHTML, like Gecko) Chrome/138.0.0.0 Safari/537.36" version="28.0.4">
  <diagram id="C5RBs43oDa-KdzZeNtuy" name="Page-1">
    <mxGraphModel dx="1306" dy="836" grid="1" gridSize="10" guides="1" tooltips="1" connect="1" arrows="1" fold="1" page="1" pageScale="1" pageWidth="1169" pageHeight="827" math="0" shadow="0">
      <root>
        <mxCell id="WIyWlLk6GJQsqaUBKTNV-0" />
        <mxCell id="WIyWlLk6GJQsqaUBKTNV-1" parent="WIyWlLk6GJQsqaUBKTNV-0" />
        <mxCell id="fit9HVZJ0cPxNoikBiIv-7" value="" style="endArrow=classic;html=1;rounded=0;exitX=0;exitY=0;exitDx=0;exitDy=0;entryX=0.769;entryY=0.538;entryDx=0;entryDy=0;fillColor=#f8cecc;strokeColor=#b85450;entryPerimeter=0;" edge="1" parent="WIyWlLk6GJQsqaUBKTNV-1" source="hhfZGofoQvEkw7XIRF3S-11">
          <mxGeometry width="50" height="50" relative="1" as="geometry">
            <mxPoint x="550" y="530" as="sourcePoint" />
            <mxPoint x="179.97000000000003" y="449.94000000000005" as="targetPoint" />
          </mxGeometry>
        </mxCell>
        <mxCell id="hhfZGofoQvEkw7XIRF3S-50" value="" style="endArrow=classic;html=1;rounded=0;entryX=1;entryY=0.5;entryDx=0;entryDy=0;" parent="WIyWlLk6GJQsqaUBKTNV-1" source="hhfZGofoQvEkw7XIRF3S-51" target="hhfZGofoQvEkw7XIRF3S-17" edge="1">
          <mxGeometry width="50" height="50" relative="1" as="geometry">
            <mxPoint x="320" y="750" as="sourcePoint" />
            <mxPoint x="760" y="400" as="targetPoint" />
          </mxGeometry>
        </mxCell>
        <mxCell id="hhfZGofoQvEkw7XIRF3S-47" value="" style="endArrow=classic;html=1;rounded=0;exitX=0;exitY=0.5;exitDx=0;exitDy=0;entryX=1;entryY=0.5;entryDx=0;entryDy=0;startArrow=classic;startFill=1;" parent="WIyWlLk6GJQsqaUBKTNV-1" source="hhfZGofoQvEkw7XIRF3S-11" target="hhfZGofoQvEkw7XIRF3S-21" edge="1">
          <mxGeometry width="50" height="50" relative="1" as="geometry">
            <mxPoint x="560" y="470" as="sourcePoint" />
            <mxPoint x="610" y="420" as="targetPoint" />
            <Array as="points">
              <mxPoint x="410" y="650" />
            </Array>
          </mxGeometry>
        </mxCell>
        <mxCell id="hhfZGofoQvEkw7XIRF3S-5" value="" style="swimlane;startSize=0;fillColor=#0050ef;strokeColor=#001DBC;fillStyle=hatch;fontColor=#ffffff;" parent="WIyWlLk6GJQsqaUBKTNV-1" vertex="1">
          <mxGeometry x="485" y="210" width="200" height="110" as="geometry" />
        </mxCell>
        <mxCell id="hhfZGofoQvEkw7XIRF3S-6" value="Web App" style="rounded=1;whiteSpace=wrap;html=1;fillColor=#dae8fc;strokeColor=#6c8ebf;" parent="hhfZGofoQvEkw7XIRF3S-5" vertex="1">
          <mxGeometry x="40" y="30" width="120" height="60" as="geometry" />
        </mxCell>
        <mxCell id="hhfZGofoQvEkw7XIRF3S-7" value="Frontend" style="text;html=1;align=center;verticalAlign=middle;resizable=0;points=[];autosize=1;strokeColor=none;fillColor=none;" parent="hhfZGofoQvEkw7XIRF3S-5" vertex="1">
          <mxGeometry x="65" width="70" height="30" as="geometry" />
        </mxCell>
        <mxCell id="fit9HVZJ0cPxNoikBiIv-0" value="" style="shape=image;imageAspect=0;aspect=fixed;verticalLabelPosition=bottom;verticalAlign=top;image=https://www.svgrepo.com/show/354113/nextjs-icon.svg;" vertex="1" parent="hhfZGofoQvEkw7XIRF3S-5">
          <mxGeometry x="15" y="10" width="50" height="50" as="geometry" />
        </mxCell>
        <mxCell id="hhfZGofoQvEkw7XIRF3S-8" value="" style="swimlane;startSize=0;fillColor=#0050ef;strokeColor=#001DBC;fillStyle=hatch;fontColor=#ffffff;" parent="WIyWlLk6GJQsqaUBKTNV-1" vertex="1">
          <mxGeometry x="280" y="390" width="870" height="420" as="geometry" />
        </mxCell>
        <mxCell id="hhfZGofoQvEkw7XIRF3S-9" value="FastAPI Server" style="rounded=1;whiteSpace=wrap;html=1;fillColor=#dae8fc;strokeColor=#6c8ebf;" parent="hhfZGofoQvEkw7XIRF3S-8" vertex="1">
          <mxGeometry x="250" y="30" width="120" height="60" as="geometry" />
        </mxCell>
        <mxCell id="hhfZGofoQvEkw7XIRF3S-10" value="Backend" style="text;html=1;align=center;verticalAlign=middle;resizable=0;points=[];autosize=1;strokeColor=none;fillColor=none;" parent="hhfZGofoQvEkw7XIRF3S-8" vertex="1">
          <mxGeometry x="507.5" width="70" height="30" as="geometry" />
        </mxCell>
        <mxCell id="hhfZGofoQvEkw7XIRF3S-11" value="LangChain Ochestrator" style="rounded=1;whiteSpace=wrap;html=1;fillColor=#e1d5e7;strokeColor=#9673a6;" parent="hhfZGofoQvEkw7XIRF3S-8" vertex="1">
          <mxGeometry x="250" y="170" width="120" height="60" as="geometry" />
        </mxCell>
        <mxCell id="hhfZGofoQvEkw7XIRF3S-12" value="Vector Store" style="shape=cylinder3;whiteSpace=wrap;html=1;boundedLbl=1;backgroundOutline=1;size=15;fillColor=#fff2cc;strokeColor=#d6b656;" parent="hhfZGofoQvEkw7XIRF3S-8" vertex="1">
          <mxGeometry x="700" y="320" width="155" height="80" as="geometry" />
        </mxCell>
        <mxCell id="hhfZGofoQvEkw7XIRF3S-37" value="" style="endArrow=classic;html=1;rounded=0;exitX=0.25;exitY=1;exitDx=0;exitDy=0;entryX=0.25;entryY=0;entryDx=0;entryDy=0;fillColor=#f8cecc;strokeColor=#b85450;" parent="hhfZGofoQvEkw7XIRF3S-8" source="hhfZGofoQvEkw7XIRF3S-9" target="hhfZGofoQvEkw7XIRF3S-11" edge="1">
          <mxGeometry width="50" height="50" relative="1" as="geometry">
            <mxPoint x="285" y="80" as="sourcePoint" />
            <mxPoint x="335" y="30" as="targetPoint" />
          </mxGeometry>
        </mxCell>
        <mxCell id="hhfZGofoQvEkw7XIRF3S-39" value="" style="endArrow=none;html=1;rounded=0;exitX=0.75;exitY=1;exitDx=0;exitDy=0;entryX=0.75;entryY=0;entryDx=0;entryDy=0;startArrow=classic;startFill=1;endFill=0;" parent="hhfZGofoQvEkw7XIRF3S-8" source="hhfZGofoQvEkw7XIRF3S-9" target="hhfZGofoQvEkw7XIRF3S-11" edge="1">
          <mxGeometry width="50" height="50" relative="1" as="geometry">
            <mxPoint x="285" y="80" as="sourcePoint" />
            <mxPoint x="335" y="30" as="targetPoint" />
            <Array as="points">
              <mxPoint x="405" y="130" />
            </Array>
          </mxGeometry>
        </mxCell>
        <mxCell id="hhfZGofoQvEkw7XIRF3S-40" value="5.. 생성한 답변 변환" style="text;html=1;align=center;verticalAlign=middle;whiteSpace=wrap;rounded=0;fillColor=#f5f5f5;fontColor=#333333;strokeColor=#666666;" parent="hhfZGofoQvEkw7XIRF3S-8" vertex="1">
          <mxGeometry x="335" y="115" width="105" height="30" as="geometry" />
        </mxCell>
        <mxCell id="hhfZGofoQvEkw7XIRF3S-41" value="" style="endArrow=classic;html=1;rounded=0;exitX=1;exitY=0.5;exitDx=0;exitDy=0;entryX=0.855;entryY=0;entryDx=0;entryDy=4.35;entryPerimeter=0;" parent="hhfZGofoQvEkw7XIRF3S-8" source="hhfZGofoQvEkw7XIRF3S-11" target="hhfZGofoQvEkw7XIRF3S-12" edge="1">
          <mxGeometry width="50" height="50" relative="1" as="geometry">
            <mxPoint x="285" y="80" as="sourcePoint" />
            <mxPoint x="335" y="30" as="targetPoint" />
            <Array as="points">
              <mxPoint x="655" y="210" />
            </Array>
          </mxGeometry>
        </mxCell>
        <mxCell id="hhfZGofoQvEkw7XIRF3S-42" value="" style="endArrow=classic;html=1;rounded=0;exitX=1;exitY=0.75;exitDx=0;exitDy=0;entryX=0.145;entryY=0;entryDx=0;entryDy=4.35;entryPerimeter=0;fillColor=#f8cecc;strokeColor=#b85450;" parent="hhfZGofoQvEkw7XIRF3S-8" source="hhfZGofoQvEkw7XIRF3S-11" target="hhfZGofoQvEkw7XIRF3S-12" edge="1">
          <mxGeometry width="50" height="50" relative="1" as="geometry">
            <mxPoint x="475" y="200" as="sourcePoint" />
            <mxPoint x="838" y="320" as="targetPoint" />
            <Array as="points" />
          </mxGeometry>
        </mxCell>
        <mxCell id="hhfZGofoQvEkw7XIRF3S-43" value="" style="endArrow=classic;html=1;rounded=0;exitX=0;exitY=0.5;exitDx=0;exitDy=0;exitPerimeter=0;entryX=0.75;entryY=1;entryDx=0;entryDy=0;" parent="hhfZGofoQvEkw7XIRF3S-8" source="hhfZGofoQvEkw7XIRF3S-12" target="hhfZGofoQvEkw7XIRF3S-11" edge="1">
          <mxGeometry width="50" height="50" relative="1" as="geometry">
            <mxPoint x="285" y="80" as="sourcePoint" />
            <mxPoint x="335" y="30" as="targetPoint" />
            <Array as="points">
              <mxPoint x="510" y="360" />
            </Array>
          </mxGeometry>
        </mxCell>
        <mxCell id="hhfZGofoQvEkw7XIRF3S-44" value="2. 질문 벡터화 및 유사 문서 검색" style="text;html=1;align=center;verticalAlign=middle;whiteSpace=wrap;rounded=0;fillColor=#f5f5f5;fontColor=#333333;strokeColor=#666666;" parent="hhfZGofoQvEkw7XIRF3S-8" vertex="1">
          <mxGeometry x="595" y="200" width="140" height="30" as="geometry" />
        </mxCell>
        <mxCell id="hhfZGofoQvEkw7XIRF3S-45" value="C.임베딩" style="text;html=1;align=center;verticalAlign=middle;whiteSpace=wrap;rounded=0;fillColor=#f8cecc;strokeColor=#b85450;dashed=1;dashPattern=8 8;" parent="hhfZGofoQvEkw7XIRF3S-8" vertex="1">
          <mxGeometry x="507.5" y="252" width="70" height="30" as="geometry" />
        </mxCell>
        <mxCell id="hhfZGofoQvEkw7XIRF3S-46" value="3. 관련성 높은 문서(Context) 반환" style="text;html=1;align=center;verticalAlign=middle;whiteSpace=wrap;rounded=0;fillColor=#f5f5f5;fontColor=#333333;strokeColor=#666666;" parent="hhfZGofoQvEkw7XIRF3S-8" vertex="1">
          <mxGeometry x="450" y="345" width="140" height="30" as="geometry" />
        </mxCell>
        <mxCell id="hhfZGofoQvEkw7XIRF3S-51" value="4. 프롬프트 구성 및 답변 생성" style="text;html=1;align=center;verticalAlign=middle;whiteSpace=wrap;rounded=0;fillColor=#f5f5f5;fontColor=#333333;strokeColor=#666666;" parent="hhfZGofoQvEkw7XIRF3S-8" vertex="1">
          <mxGeometry x="80" y="241" width="90" height="30" as="geometry" />
        </mxCell>
        <mxCell id="hhfZGofoQvEkw7XIRF3S-81" value="" style="shape=image;imageAspect=0;aspect=fixed;verticalLabelPosition=bottom;verticalAlign=top;image=https://avatars.githubusercontent.com/u/156354296?s=280&amp;v=4;" parent="hhfZGofoQvEkw7XIRF3S-8" vertex="1">
          <mxGeometry x="230" y="20" width="42" height="42" as="geometry" />
        </mxCell>
        <mxCell id="hhfZGofoQvEkw7XIRF3S-84" value="" style="shape=image;imageAspect=0;aspect=fixed;verticalLabelPosition=bottom;verticalAlign=top;image=https://logo.svgcdn.com/s/langchain-dark-8x.png;" parent="hhfZGofoQvEkw7XIRF3S-8" vertex="1">
          <mxGeometry x="227.5" y="200" width="70" height="70" as="geometry" />
        </mxCell>
        <mxCell id="hhfZGofoQvEkw7XIRF3S-86" value="&lt;h1 style=&quot;margin-top: 0px;&quot;&gt;.env&lt;/h1&gt;&lt;p&gt;LLM_PROVIDER 값에 따라&lt;/p&gt;&lt;p&gt;LLM 프롬프트 구성&lt;/p&gt;" style="text;html=1;whiteSpace=wrap;overflow=hidden;rounded=0;fontSize=10;" parent="hhfZGofoQvEkw7XIRF3S-8" vertex="1">
          <mxGeometry x="100" y="270" width="160" height="100" as="geometry" />
        </mxCell>
        <mxCell id="F_3ullcRQ5tze06GpEn3-12" value="&lt;span style=&quot;color: rgb(51, 51, 51);&quot;&gt;A. LangChain 생성&lt;/span&gt;" style="text;html=1;align=center;verticalAlign=middle;whiteSpace=wrap;rounded=0;fillColor=#f8cecc;strokeColor=#b85450;dashed=1;dashPattern=8 8;" parent="hhfZGofoQvEkw7XIRF3S-8" vertex="1">
          <mxGeometry x="218" y="115" width="100" height="30" as="geometry" />
        </mxCell>
        <mxCell id="F_3ullcRQ5tze06GpEn3-9" value="B. 댓글 로드" style="text;html=1;align=center;verticalAlign=middle;whiteSpace=wrap;rounded=0;fillColor=#f8cecc;strokeColor=#b85450;dashed=1;dashPattern=8 8;" parent="hhfZGofoQvEkw7XIRF3S-8" vertex="1">
          <mxGeometry x="40" y="100" width="70" height="30" as="geometry" />
        </mxCell>
        <mxCell id="hhfZGofoQvEkw7XIRF3S-13" value="" style="swimlane;startSize=0;fillColor=#0050ef;strokeColor=#001DBC;fillStyle=hatch;fontColor=#ffffff;" parent="WIyWlLk6GJQsqaUBKTNV-1" vertex="1">
          <mxGeometry x="40" y="520" width="210" height="120" as="geometry" />
        </mxCell>
        <mxCell id="hhfZGofoQvEkw7XIRF3S-15" value="Google Cloud Plattform" style="text;html=1;align=center;verticalAlign=middle;resizable=0;points=[];autosize=1;strokeColor=none;fillColor=none;" parent="hhfZGofoQvEkw7XIRF3S-13" vertex="1">
          <mxGeometry x="30" width="150" height="30" as="geometry" />
        </mxCell>
        <mxCell id="hhfZGofoQvEkw7XIRF3S-82" value="" style="shape=image;imageAspect=0;aspect=fixed;verticalLabelPosition=bottom;verticalAlign=top;image=https://upload.wikimedia.org/wikipedia/commons/thumb/c/c1/Google_%22G%22_logo.svg/768px-Google_%22G%22_logo.svg.png;" parent="hhfZGofoQvEkw7XIRF3S-13" vertex="1">
          <mxGeometry x="-30" y="-40" width="70" height="70" as="geometry" />
        </mxCell>
        <mxCell id="hhfZGofoQvEkw7XIRF3S-17" value="Google Gemini LLM" style="shape=hexagon;perimeter=hexagonPerimeter2;whiteSpace=wrap;html=1;fixedSize=1;fillColor=#d5e8d4;strokeColor=#82b366;" parent="hhfZGofoQvEkw7XIRF3S-13" vertex="1">
          <mxGeometry x="25" y="50" width="160" height="60" as="geometry" />
        </mxCell>
        <mxCell id="hhfZGofoQvEkw7XIRF3S-19" value="" style="swimlane;startSize=0;fillColor=#0050ef;strokeColor=#001DBC;fillStyle=hatch;fontColor=#ffffff;" parent="WIyWlLk6GJQsqaUBKTNV-1" vertex="1">
          <mxGeometry x="40" y="680" width="210" height="130" as="geometry" />
        </mxCell>
        <mxCell id="hhfZGofoQvEkw7XIRF3S-20" value="Ollama" style="text;html=1;align=center;verticalAlign=middle;resizable=0;points=[];autosize=1;strokeColor=none;fillColor=none;" parent="hhfZGofoQvEkw7XIRF3S-19" vertex="1">
          <mxGeometry x="75" width="60" height="30" as="geometry" />
        </mxCell>
        <mxCell id="hhfZGofoQvEkw7XIRF3S-21" value="Llama3.3 LLM" style="shape=hexagon;perimeter=hexagonPerimeter2;whiteSpace=wrap;html=1;fixedSize=1;fillColor=#d5e8d4;strokeColor=#82b366;" parent="hhfZGofoQvEkw7XIRF3S-19" vertex="1">
          <mxGeometry x="25" y="40" width="160" height="60" as="geometry" />
        </mxCell>
        <mxCell id="hhfZGofoQvEkw7XIRF3S-83" value="" style="shape=image;imageAspect=0;aspect=fixed;verticalLabelPosition=bottom;verticalAlign=top;image=https://registry.npmmirror.com/@lobehub/icons-static-png/latest/files/light/ollama.png;" parent="hhfZGofoQvEkw7XIRF3S-19" vertex="1">
          <mxGeometry x="-40" y="-40" width="80" height="80" as="geometry" />
        </mxCell>
        <mxCell id="hhfZGofoQvEkw7XIRF3S-28" value="" style="endArrow=classic;html=1;rounded=0;exitX=0.25;exitY=1;exitDx=0;exitDy=0;entryX=0.25;entryY=0;entryDx=0;entryDy=0;" parent="WIyWlLk6GJQsqaUBKTNV-1" source="hhfZGofoQvEkw7XIRF3S-6" target="hhfZGofoQvEkw7XIRF3S-9" edge="1">
          <mxGeometry width="50" height="50" relative="1" as="geometry">
            <mxPoint x="590" y="210" as="sourcePoint" />
            <mxPoint x="590" y="340" as="targetPoint" />
            <Array as="points">
              <mxPoint x="520" y="360" />
            </Array>
          </mxGeometry>
        </mxCell>
        <mxCell id="hhfZGofoQvEkw7XIRF3S-27" value="1. API 요청&lt;br&gt;(POST /api/comments/query)" style="text;html=1;align=center;verticalAlign=middle;whiteSpace=wrap;rounded=0;fillColor=#f5f5f5;fontColor=#333333;strokeColor=#666666;" parent="WIyWlLk6GJQsqaUBKTNV-1" vertex="1">
          <mxGeometry x="410" y="340" width="168" height="30" as="geometry" />
        </mxCell>
        <mxCell id="hhfZGofoQvEkw7XIRF3S-29" value="" style="endArrow=none;html=1;rounded=0;exitX=0.75;exitY=1;exitDx=0;exitDy=0;entryX=0.75;entryY=0;entryDx=0;entryDy=0;startArrow=classic;startFill=1;endFill=0;" parent="WIyWlLk6GJQsqaUBKTNV-1" source="hhfZGofoQvEkw7XIRF3S-6" target="hhfZGofoQvEkw7XIRF3S-9" edge="1">
          <mxGeometry width="50" height="50" relative="1" as="geometry">
            <mxPoint x="685" y="350" as="sourcePoint" />
            <mxPoint x="685" y="470" as="targetPoint" />
            <Array as="points">
              <mxPoint x="650" y="360" />
            </Array>
          </mxGeometry>
        </mxCell>
        <mxCell id="hhfZGofoQvEkw7XIRF3S-30" value="6. API 응답" style="text;html=1;align=center;verticalAlign=middle;whiteSpace=wrap;rounded=0;fillColor=#f5f5f5;fontColor=#333333;strokeColor=#666666;" parent="WIyWlLk6GJQsqaUBKTNV-1" vertex="1">
          <mxGeometry x="610" y="340" width="70" height="30" as="geometry" />
        </mxCell>
        <mxCell id="F_3ullcRQ5tze06GpEn3-11" value="&lt;h1 style=&quot;margin-top: 0px;&quot;&gt;순서도&lt;/h1&gt;&lt;p&gt;&lt;font style=&quot;color: rgb(255, 0, 0);&quot;&gt;빨간색: 서버 기동 사이클&lt;/font&gt;&lt;/p&gt;&lt;p&gt;&lt;font style=&quot;color: rgb(255, 0, 0);&quot;&gt;A &amp;gt; B &amp;gt; C&lt;/font&gt;&lt;/p&gt;&lt;p&gt;검정색: 런타임 사이클&lt;/p&gt;&lt;p&gt;1 &amp;gt; 2 &amp;gt; ... &amp;gt; 6&lt;/p&gt;&lt;p&gt;&lt;br&gt;&lt;/p&gt;" style="text;html=1;whiteSpace=wrap;overflow=hidden;rounded=0;" parent="WIyWlLk6GJQsqaUBKTNV-1" vertex="1">
          <mxGeometry x="940" y="40" width="180" height="160" as="geometry" />
        </mxCell>
        <mxCell id="fit9HVZJ0cPxNoikBiIv-3" value="" style="swimlane;startSize=0;fillColor=#0050ef;strokeColor=#001DBC;fillStyle=hatch;fontColor=#ffffff;" vertex="1" parent="WIyWlLk6GJQsqaUBKTNV-1">
          <mxGeometry x="40" y="370" width="210" height="120" as="geometry" />
        </mxCell>
        <mxCell id="fit9HVZJ0cPxNoikBiIv-4" value="Instagram" style="text;html=1;align=center;verticalAlign=middle;resizable=0;points=[];autosize=1;strokeColor=none;fillColor=none;" vertex="1" parent="fit9HVZJ0cPxNoikBiIv-3">
          <mxGeometry x="65" width="80" height="30" as="geometry" />
        </mxCell>
        <mxCell id="fit9HVZJ0cPxNoikBiIv-9" value="" style="shape=image;imageAspect=0;aspect=fixed;verticalLabelPosition=bottom;verticalAlign=top;image=https://upload.wikimedia.org/wikipedia/commons/thumb/a/a5/Instagram_icon.png/2048px-Instagram_icon.png;" vertex="1" parent="fit9HVZJ0cPxNoikBiIv-3">
          <mxGeometry x="75" y="40" width="60" height="60" as="geometry" />
        </mxCell>
      </root>
    </mxGraphModel>
  </diagram>
</mxfile>
